<?xml version="1.0" encoding="UTF-8" standalone="no"?>
<svg width="38px" height="38px" viewBox="0 0 38 38" version="1.1" xmlns="http://www.w3.org/2000/svg" xmlns:xlink="http://www.w3.org/1999/xlink">
    <!-- Generator: Sketch 39.1 (31720) - http://www.bohemiancoding.com/sketch -->
    <title>ico-header-logo</title>
    <desc>Created with Sketch.</desc>
    <defs></defs>
    <g id="Page-1" stroke="none" stroke-width="1" fill="none" fill-rule="evenodd">
        <g id="ico-header-logo" fill="#FFFFFF">
            <g id="Group" transform="translate(3.000000, 2.000000)">
                <path d="M3.92539718,16.7372534 C2.40878176,18.2085189 1.46300388,20.0454215 1.46300388,21.947995 C1.46300388,27.064934 7.85950992,31.2130326 15.75,31.2130326 C23.6404901,31.2130326 30.0369961,27.064934 30.0369961,21.947995 C30.0369961,20.0454215 29.0745743,18.193464 27.5579589,16.7221986 C27.5991585,16.6123342 27.8292584,15.7950912 27.8292584,15.7950912 C30.0575018,17.6056198 31.4599615,19.9850489 31.4599615,22.5112782 C31.4599615,28.3040393 24.4263721,33 15.75,33 C7.07362786,33 0.0400385255,28.3040393 0.0400385255,22.5112782 C0.0400385255,19.9850489 1.41295399,17.61334 3.64119741,15.8028114 C3.64892137,15.8478774 3.86775291,16.5835368 3.92539718,16.7372534 Z" id="plate"></path>
                <path d="M27.6115205,12.1578138 C27.8430409,12.7523674 27.9658537,13.3739997 27.9658537,14.0137845 C27.9658537,18.2832639 22.4966297,21.7443609 15.75,21.7443609 C9.00337032,21.7443609 3.53414634,18.2832639 3.53414634,14.0137845 C3.53414634,13.3989115 3.64758123,12.8008048 3.86193016,12.2273881 C5.8199697,14.8986257 10.3883245,16.7719298 15.7115854,16.7719298 C21.0809441,16.7719298 25.6822655,14.8660407 27.6115202,12.157813 L27.6115205,12.1578138 Z" id="ring-2"></path>
                <path d="M27.5422576,18.7037926 C27.669116,19.1621456 27.7353659,19.6343443 27.7353659,20.1166894 C27.7353659,24.4582276 22.3680605,27.9777397 15.7471537,27.9777397 C9.12624702,27.9777397 3.75894164,24.4582276 3.75894164,20.1166894 C3.75894164,19.6322019 3.82578131,19.1579511 3.95374388,18.6976858 C5.86401551,21.6198344 10.4260446,23.6766917 15.75,23.6766917 C21.0702448,23.6766917 25.629625,21.6227005 27.5422576,18.7037926 L27.5422576,18.7037926 Z" id="ring-1"></path>
                <path d="M15.75,14.9172932 C22.6239246,14.9172932 28.1963415,11.5779434 28.1963415,7.45864662 C28.1963415,3.33934984 22.6239246,0 15.75,0 C8.87607542,0 3.30365854,3.33934984 3.30365854,7.45864662 C3.30365854,11.5779434 8.87607542,14.9172932 15.75,14.9172932 L15.75,14.9172932 L15.75,14.9172932 Z M10.295122,3.18538429 C10.295122,2.84215339 10.5698371,2.56390977 10.9095888,2.56390977 L20.3599234,2.56390977 C20.6992841,2.56390977 20.9743902,2.84204609 20.9743902,3.18538429 L20.9743902,8.00258563 C20.9743902,8.34581653 20.6996751,8.62406015 20.3599234,8.62406015 L10.9095888,8.62406015 C10.5702281,8.62406015 10.295122,8.34592383 10.295122,8.00258563 L10.295122,3.18538429 L10.295122,3.18538429 L10.295122,3.18538429 Z" id="Combined-Shape"></path>
            </g>
        </g>
    </g>
</svg>